<?xml version="1.0" encoding="UTF-8" standalone="no"?>
<svg
   width="16"
   height="16"
   fill="currentColor"
   class="bi bi-caret-left"
   viewBox="0 0 16 16"
   version="1.1"
   id="svg4"
   sodipodi:docname="caret-left.svg"
   inkscape:version="1.2.2 (732a01da63, 2022-12-09)"
   xmlns:inkscape="http://www.inkscape.org/namespaces/inkscape"
   xmlns:sodipodi="http://sodipodi.sourceforge.net/DTD/sodipodi-0.dtd"
   xmlns="http://www.w3.org/2000/svg"
   xmlns:svg="http://www.w3.org/2000/svg">
  <defs
     id="defs8" />
  <sodipodi:namedview
     id="namedview6"
     pagecolor="#ffffff"
     bordercolor="#000000"
     borderopacity="0.25"
     inkscape:showpageshadow="2"
     inkscape:pageopacity="0.0"
     inkscape:pagecheckerboard="0"
     inkscape:deskcolor="#d1d1d1"
     showgrid="false"
     inkscape:zoom="50.25"
     inkscape:cx="8.0099502"
     inkscape:cy="8"
     inkscape:window-width="1920"
     inkscape:window-height="991"
     inkscape:window-x="-9"
     inkscape:window-y="-9"
     inkscape:window-maximized="1"
     inkscape:current-layer="svg4" />
  <path
     d="M10 12.796V3.204L4.519 8 10 12.796zm-.659.753-5.48-4.796a1 1 0 0 1 0-1.506l5.48-4.796A1 1 0 0 1 11 3.204v9.592a1 1 0 0 1-1.659.753z"
     id="path2" />
  <path
     style="fill:#ffffff;fill-rule:evenodd;stroke-width:0.0752239"
     d="M 9.7433757,13.749602 C 9.5883843,13.707922 9.4580388,13.630914 9.27525,13.473032 8.5509628,12.847438 3.9511995,8.8135785 3.8481732,8.7136428 3.5132512,8.3887678 3.4386753,7.9351035 3.6538337,7.5314251 3.6871375,7.4689407 3.7517835,7.3798509 3.7974915,7.3334478 3.9270508,7.2019178 9.3757624,2.4345953 9.4659797,2.3738329 9.6845857,2.226599 10.01716,2.1779287 10.273205,2.2557002 c 0.353306,0.1073133 0.616346,0.3941863 0.692981,0.7557691 0.04246,0.200336 0.04213,9.7782917 -3.48e-4,9.9787247 -0.0777,0.366688 -0.36183,0.667682 -0.717778,0.760395 -0.144728,0.0377 -0.362415,0.03727 -0.5046843,-9.87e-4 z M 9.9951047,5.5923602 9.9900498,3.1978666 7.2555624,5.5903646 C 5.7515942,6.9062386 4.521075,7.9905745 4.521075,8 c 0,0.00943 1.2305192,1.0937614 2.7344874,2.409635 l 2.7344874,2.392498 0.00505,-2.407639 c 0.00278,-1.3242023 0.00278,-3.4851623 0,-4.8021338 z"
     id="path306" />
</svg>
