<?xml version="1.0" encoding="UTF-8" standalone="no"?>
<svg
   width="16"
   height="16"
   fill="currentColor"
   class="bi bi-caret-right"
   viewBox="0 0 16 16"
   version="1.1"
   id="svg4"
   sodipodi:docname="caret-right.svg"
   inkscape:version="1.2.2 (732a01da63, 2022-12-09)"
   xmlns:inkscape="http://www.inkscape.org/namespaces/inkscape"
   xmlns:sodipodi="http://sodipodi.sourceforge.net/DTD/sodipodi-0.dtd"
   xmlns="http://www.w3.org/2000/svg"
   xmlns:svg="http://www.w3.org/2000/svg">
  <defs
     id="defs8" />
  <sodipodi:namedview
     id="namedview6"
     pagecolor="#ffffff"
     bordercolor="#000000"
     borderopacity="0.25"
     inkscape:showpageshadow="2"
     inkscape:pageopacity="0.0"
     inkscape:pagecheckerboard="0"
     inkscape:deskcolor="#d1d1d1"
     showgrid="false"
     inkscape:zoom="50.25"
     inkscape:cx="8.0099502"
     inkscape:cy="8"
     inkscape:window-width="1920"
     inkscape:window-height="991"
     inkscape:window-x="-9"
     inkscape:window-y="-9"
     inkscape:window-maximized="1"
     inkscape:current-layer="svg4" />
  <path
     d="M6 12.796V3.204L11.481 8 6 12.796zm.659.753 5.48-4.796a1 1 0 0 0 0-1.506L6.66 2.451C6.011 1.885 5 2.345 5 3.204v9.592a1 1 0 0 0 1.659.753z"
     id="path2" />
  <path
     style="fill:#ffffff;fill-rule:evenodd;stroke-width:0.0752239"
     d="M 5.7433757,13.750848 C 5.3781936,13.648407 5.0884272,13.325634 5.0263898,12.952191 5.0097945,12.852295 5.0052432,11.50653 5.0093387,7.9104478 l 0.00559,-4.9054727 0.044396,-0.1164397 C 5.2152666,2.4795348 5.5809743,2.2184956 5.9971211,2.2191417 c 0.2496005,3.875e-4 0.4396507,0.06848 0.6297446,0.2256309 0.2664946,0.2203108 5.5222363,4.8271486 5.5867633,4.8969896 0.345721,0.3741918 0.331903,0.9826414 -0.03055,1.3450909 -0.157338,0.1573375 -5.5546057,4.8746429 -5.6499898,4.9381879 -0.046933,0.03127 -0.1345857,0.07581 -0.1947847,0.09898 -0.1447583,0.05572 -0.4438515,0.06921 -0.5949328,0.02683 z m 3.049447,-3.382673 2.7032703,-2.3639559 -0.06645,-0.064245 C 11.393089,7.9046386 10.176617,6.8389512 8.7263682,5.5717795 7.2761194,4.3046076 6.069403,3.2496644 6.0447761,3.2274613 L 6,3.187092 V 8 12.812908 l 0.044776,-0.04039 c 0.024627,-0.02221 1.2612478,-1.104168 2.7480466,-2.404344 z"
     id="path306" />
</svg>
