<?xml version="1.0" encoding="UTF-8" standalone="no"?>
<svg
   width="16"
   height="16"
   fill="currentColor"
   class="bi bi-search"
   viewBox="0 0 16 16"
   version="1.1"
   id="svg4"
   sodipodi:docname="search.svg"
   inkscape:version="1.2.2 (732a01da63, 2022-12-09)"
   xmlns:inkscape="http://www.inkscape.org/namespaces/inkscape"
   xmlns:sodipodi="http://sodipodi.sourceforge.net/DTD/sodipodi-0.dtd"
   xmlns="http://www.w3.org/2000/svg"
   xmlns:svg="http://www.w3.org/2000/svg">
  <defs
     id="defs8" />
  <sodipodi:namedview
     id="namedview6"
     pagecolor="#ffffff"
     bordercolor="#000000"
     borderopacity="0.25"
     inkscape:showpageshadow="2"
     inkscape:pageopacity="0.0"
     inkscape:pagecheckerboard="0"
     inkscape:deskcolor="#d1d1d1"
     showgrid="false"
     inkscape:zoom="50.25"
     inkscape:cx="8.0099502"
     inkscape:cy="8"
     inkscape:window-width="1920"
     inkscape:window-height="991"
     inkscape:window-x="-9"
     inkscape:window-y="-9"
     inkscape:window-maximized="1"
     inkscape:current-layer="svg4" />
  <path
     d="M11.742 10.344a6.5 6.5 0 1 0-1.397 1.398h-.001c.03.04.062.078.098.115l3.85 3.85a1 1 0 0 0 1.415-1.414l-3.85-3.85a1.007 1.007 0 0 0-.115-.1zM12 6.5a5.5 5.5 0 1 1-11 0 5.5 5.5 0 0 1 11 0z"
     id="path2" />
  <path
     style="fill:#ffffff;fill-rule:evenodd;stroke-width:0.0752239"
     d="m 14.768837,15.958478 c -0.281722,-0.06819 -0.197574,0.0086 -2.397456,-2.187971 l -2.036578,-2.033518 -0.212242,0.144101 c -0.8811849,0.598283 -1.9304977,0.974073 -3.025167,1.083402 -0.3012851,0.03009 -0.9354177,0.02514 -1.2720893,-0.0099 C 4.246084,12.790028 2.7275087,12.018114 1.6865717,10.850774 0.2592122,9.2500876 -0.29617924,7.1278448 0.17245491,5.0650826 0.4378473,3.8969188 1.0062008,2.8529132 1.8505859,1.9825325 2.888762,0.91239473 4.2144076,0.25463305 5.7313433,0.05697016 6.057118,0.01452038 6.868045,0.00852624 7.1840796,0.04623195 8.4711978,0.19979652 9.5680995,0.65548989 10.577114,1.4558236 c 0.23798,0.1887611 0.799651,0.7537848 0.993921,0.999853 0.732262,0.9275031 1.180809,1.9731865 1.356231,3.1617391 0.05836,0.3953972 0.07236,1.1110492 0.02961,1.5130295 -0.06064,0.5701427 -0.17237,1.0638674 -0.358934,1.5860853 -0.1325,0.3708842 -0.449763,1.0011262 -0.672828,1.3365685 l -0.187497,0.281954 2.03317,2.036454 c 1.745497,1.748315 2.042042,2.05361 2.095869,2.157708 0.208947,0.404089 0.142995,0.843165 -0.174807,1.16378 -0.248995,0.2512 -0.583969,0.347547 -0.92301,0.265483 z M 7.3034826,11.950142 c 1.0066253,-0.150221 1.955149,-0.572648 2.7164174,-1.209763 0.237807,-0.199024 0.646512,-0.618312 0.818682,-0.8398815 0.610164,-0.785233 0.970366,-1.6428253 1.124826,-2.6780585 0.05398,-0.3617821 0.04858,-1.1341644 -0.01061,-1.5188207 C 11.807258,4.7579315 11.458483,3.9267433 10.887218,3.1641791 10.687078,2.8970195 10.203423,2.4002782 9.9402985,2.1916394 9.1290092,1.5483459 8.1384714,1.1398831 7.1044776,1.0222467 6.8239116,0.99032702 6.1728615,0.99019787 5.8905473,1.0220059 4.8579449,1.1383481 3.8793363,1.5444119 3.0547264,2.1987015 2.8085077,2.3940645 2.4030872,2.7961767 2.211723,3.0348259 1.8617228,3.4713093 1.5072138,4.097647 1.3247524,4.6019035 0.66917465,6.4136804 0.99171857,8.4147011 2.1829787,9.9262281 2.4033968,10.205905 2.879031,10.672263 3.1542289,10.878537 c 0.8590786,0.643918 1.7971842,1.008564 2.8603241,1.111819 0.2897129,0.02814 0.9739588,0.0068 1.2889296,-0.04021 z"
     id="path306" />
</svg>
